<?xml version="1.0"?>
<svg xmlns="http://www.w3.org/2000/svg" height="512px" viewBox="0 0 192 192" width="512px" class="hovered-paths"><g><path d="m152 112a40 40 0 1 0 40 40 40.045 40.045 0 0 0 -40-40zm6.656 52.438a8 8 0 0 1 -10.234 2.717l-16-8 7.156-14.31 9.683 4.841 12.083-18.123 13.312 8.875z" data-original="#000000" class="active-path" data-old_color="#000000" fill="#9B51E0"/><path d="m136 106.752v-26.752a8 8 0 0 0 -8-8h-8v-24a48 48 0 0 0 -96 0v24h-8a8 8 0 0 0 -8 8v88a8 8 0 0 0 8 8h94.458a47.945 47.945 0 0 1 25.542-69.248zm-96-58.752a32 32 0 0 1 64 0v24h-64zm40 77.842v26.158h-16v-26.158a16 16 0 1 1 16 0z" data-original="#000000" class="active-path" data-old_color="#000000" fill="#9B51E0"/></g> </svg>
